<svg preserveAspectRatio="xMidYMid meet" data-bbox="53.858 36.862 459.214 493.237" viewBox="53.858 36.862 459.214 493.237" height="566.929" width="566.929" xmlns="http://www.w3.org/2000/svg" data-type="color" role="img" aria-label="Decorative hashtag"><defs><style>#comp-jyd2u5e11 svg [data-color="1"] {fill: #C3FF5B;}</style></defs>
    <g>
        <path d="M116.366 344.995c-1.065-.03-2.562-.03-4.139-.03-1.685 2.58-4.791 1.983-7.211 2.873-7.084 2.603-14.119 5.438-21.504 7.154-4.212 3.059-9.507 3.544-14.008 5.971-3.515 1.896-7.245 3.39-10.842 5.046-1.133.285-1.875-.356-2.09-.723-1.411-.709-1.587.886-2.714.318.719-2.725 2.029-5.104 4.203-7.129 1.842-.413 4.076-.323 5.31-2.454 4.479-.644 7.462-4.322 11.608-5.742 2.9-.993 5.304-3.125 8.142-4.429 1.425-.654 2.7-.845 4.253-.888 1.91-2.067 3.954-4.117 7.135-4.177 7.122-4.458 15.398-6.229 22.858-9.907 3.758-1.853 7.716-3.203 11.843-3.93 2.069-.364 3.376-2.025 5.449-2.573 7.311-1.933 14.408-4.618 21.721-6.618a23.635 23.635 0 0 0 7.062-3.312c1.363-.953 2.74-1.597 4.211-1.945 2.199-.521 3.744-2.196 5.802-2.892.691-1.035-.576-2.68 1.199-3.157l-1.085-1.427 2.129-3.997c-.236-4.706.18-9.593 2.999-14.094.138-.674-.457-1.055-1.079-1.689 2.246-4.485 2.038-9.676 3.545-14.469.059-.189-.314-.516-.547-.871l2.047-4.017c.15-.9-.66-1.128-.984-1.676 1.658-5.008 1.852-10.379 4.075-16.034-4.59 2.728-9.73 1.997-13.757 5.547-1.861-.151-4.18-.157-5.996 1.284-1.615 1.281-3.808.212-5.308 1.708-1.562 1.558-3.659.849-5.051 1.007l-7.733 3.998h-5.69l-1.513 1.71-12.689 2.613-1.189 2.139-1.446-1.301c-2.679 1.411-5.251 2.924-8.364 2.875-1.865-.029-3.404.635-4.734 2.034-2.191-.109-4.44-.16-6.343 1.362-1.863 1.49-4.305.051-6.424 1.46-1.15.764-2.577 1.693-4.148 1.976-2.558-.03-4.877.534-7.148 2.072-.814.551-1.977 1.352-3.499 1.232-3.04-.24-5.702 1.298-8.634 2.852-3.5.206-7.354.322-11.141-1.34l.825-1.037c-.119-.524-.531-.558-1.012-.598-.281-.023-.544-.277-1.373-.736 3.379-.453 6.289-.109 8.919-.269.788-.466.502-1.024.634-1.749 4.659-1.43 9.359-3.166 14.508-3.335l2.419-2.43c4.112-1.264 7.878-2.218 11.487-3.59 3.514-1.336 6.858-3.135 10.773-2.908 3.297-2.645 7.495-1.964 11.483-3.542l.462-1.315c1.367-.046 2.846-.75 3.903.522l2.583-2.684h4.704l2.012-2.022c3.918.904 7.51-3.905 12.024-1.127.74-.623.566-2.02 1.649-2.58 1.206-.911 3.034.572 4.038-1.128.99.398 1.87 1.104 3.316.765.345-2.692 3.406-2.285 4.923-3.921.762 1.168 1.889 1.105 3.04.917.529-.324.427-.845.439-1.363 1.537-.656 2.855-2.034 4.764-1.566 1.254.308 2.081-.579 3.086-.998 1.703-.71 3.415-1.835 5.16-1.91 3.084-.133 5.22-1.958 7.556-3.096.512-1.143.659-2.055-.1-3.052-1.889.038-3.517 1.332-4.918 2.224-1.804 1.148-3.51.357-5.193.936l-1.891 1.9c-2.141-.245-4.282.161-5.943 1.959l-1.135-1.035c-2.136.007-2.301 3.389-5.011 2.581-2.867-.34-5.581 2.35-8.568 1.394-1.559.922-2.462 2.284-3.854 3.203-2.034 1.343-4.288 1.251-6.415 1.835-1.06.291-2.283.895-3.062.9-2.829.019-4.665 2.613-7.667 2.301-2.575-.268-4.887 1.752-7.631 2.002-2.052.187-4.06 1.372-5.988 2.318-4.12 2.02-8.552 2.911-13.01 3.467-1.618.202-2.803 1.854-4.562 1.114-4.423 3.067-9.713 4.025-14.683 5.474-3.69 1.075-7.269 3.288-10.704 2.612-6.045 2.514-11.495 4.544-17.554 3.892-.344-.302-.698-.645-1.089-.938-.107-.08-.324-.012-.678-.012l-1.403 1.009c-1.224.157-1.589-.965-2.3-1.561.029-.494.015-.915.377-1.373 1.55-1.965 3.66-3.59 3.701-6.503.008-.541 1.248-1.614 1.673-1.501 1.667.44 2.519-1.357 4.109-1.151 2.27.294 3.885-1.144 5.516-2.868h3.735c7.411-4.988 15.473-7.263 23.285-10.118 3.613-1.32 7.301-2.478 10.793-4.068 2.846-1.296 5.897-1.906 8.815-2.783 4.742-1.425 9.262-3.423 13.986-4.857 2.508-.762 4.931-1.761 7.468-2.499 2.925-.851 6.062-1.491 8.73-2.942 2.339-1.272 4.546-2.194 7.097-1.858 2.177-2.422 5.31-1.943 7.889-2.969 2.576-1.025 5.026-2.808 8.145-2.234.294.054 1.853-.545 2.344-1.301 1.204-1.852 3.394-2.149 4.986-2.394 3.931-.604 7.524-1.987 10.985-3.697 1.327-.656 2.574-.052 3.788-.645.857-.801-.332-2.361 1.117-3.085-.44-1.195-1.076-2.214-.417-3.765 1.603-3.775 2.343-7.82 2.637-11.94.158-2.218 1.6-4.257.906-6.429.44-.888 1.259-.515 1.82-.918a4.916 4.916 0 0 1-.596-4.379c1.516-4.51 2.71-9.069 2.826-13.851.039-1.616 1.392-2.84 1.079-4.608-.18-1.015 1.252-1.757.979-3.091-.228-1.114-.047-2.313-.047-3.373.377-.605.883-.547 1.752-.542.099-4.867 2.375-9.4 2.272-14.673l2.189-1.727c-1.381-.915-1.716-2.334-1.091-3.168 2.339-3.124 2.064-6.876 2.82-10.369.161-.742.587-1.117.982-1.593-.207-.591-1.101-.761-.939-1.577.164-1.094 1.199-1.5 1.904-2.441.005-4.299 1.52-8.418 3.044-12.534.363-1-1.248-1.081-.765-2.746l2.726-2.743c.231-1.154-.387-1.52-.976-2.144 2.048-4.737 2.475-10.102 4.898-14.828-.441-5.388 3.411-9.874 3.224-15.658l1.84-1.372c.332-1.601-1.508-2.141-.86-3.596 2.248-3.766 4.017-7.876 4.922-12.334.096-.471-.058-1.083.189-1.417 1.881-2.547 2.75-5.556 3.733-8.474.401-1.192 1.348-.611 1.977-1.344l.179-3.203c1.56-1.423 3.19-2.651 5.57-2.327l.641 1.79c1.347-1.006 2.831-1.084 4.384-.646 1.169 1.178.795 2.824 1.079 4.213.376 1.834.705 3.839-.344 5.711-.846 1.509-.084 3.529-1.432 4.918-.156 1.069-1.382 1.724-1.031 3.041.253.949-1.793 1.782-.855 2.409 1.411.943-.381 1.837.359 2.544.774-.096 1.603.309 2.322-.265-.006-.851-1.386-1.337-.385-2.716h1.586c.882.638.844 2.738 2.828 1.708.224-1.215.389-2.463-.216-3.685-1.024.345-.243 1.612-1.123 1.977l-1.489.001c.217-1.612-1.734-.485-1.941-1.556.652-1.146 2.268.328 2.847-1.019-.25-.95-1.734.207-1.757-1.086l.851-.35c.792-.001 1.609.172 2.181-.667.457-.671 1.207-.21 1.812-.335h.998c.431 1.272 1.361 2.219.697 3.963-.995 2.615-2.136 5.343-1.585 8.498-1.475.977-2.155 2.622-2.99 4.185l.972 1.047c-1.669 3.025-.843 6.825-2.932 9.803l.861 1.352c-.05 1.301-1.165 1.657-1.997 2.851.37 1.781-.487 3.933.098 6.202l-2.099 4.088c.885 4.052-1.891 7.822-2.446 12.051-.388 2.953-2.052 5.676-1.525 8.598l-1.977 1.986c-.237 1.851.037 3.7-.907 5.612-.698 1.413-.381 3.336-1.023 5.067-.692 1.867-1.789 3.879-1.094 6.047.43 1.343-.696 2.104-1.099 3.061-1.051 2.5-.465 5.335-1.847 7.757a15.18 15.18 0 0 1-1.138 1.694c1.12 4.397-2.227 8.062-2.036 12.636-1.875-.45-3.208-1.651-4.878-1.218l-.998-2.005c-.474-1.408 1.183-2.173 1.025-3.536-.132-1.136-.066-2.302-.011-3.451.029-.617-.16-1.219.268-1.863 1.645-2.473 1.974-5.307 1.656-8.158-.148-1.32.896-1.975 1.055-3.046-.111-1.844 1.059-3.117 1.884-4.562-.116-.517-1.056-.621-.886-1.454 1.493-.086.848-1.245.998-2.005.122-.943-.286-1.946.446-3.032.663.054 1.545-.096 2.174.236.684.361 1.141 1.144 2.061.598.705-1.56 1.413-3.118 2.359-5.202l-9.396 2.634c1.108 1.598-.819 3.557 1.359 4.766v2.005c-.612.127-1.329-.312-1.812.299-.556 1.014.111 1.547.714 2.1-1.308 1.576-1.334 1.627-1.896 3.617.551 2.51-2.037 4.382-.849 6.783l-2.209.523c.706 1.829-1.01 3.605-.061 5.986l-1.922 3.719c.616 3.774-.087 7.769-2.696 11.304 1.256 2.045.552 4.268.758 6.146-.478.842-1.03.568-1.857.691.222 4.341-.893 8.359-4.2 11.599.41 1.848 2.318 3.698.261 5.688.432 4.237-2.723 7.79-2.239 12.074.186 1.644-.766 3.02-1.944 4.163-.577.56-1.321 1.051-.824 2.362 2.304.628 4.007-.711 5.786-2.272.141-2.246-.478-4.795 1.658-6.599 1.25-.226 1.598.963 2.353 1.503 0 .843 0 1.675.02 2.488-.62.03-1.217.077-1.702.115-.446.786-.445 1.341.161 1.89l1.414-.119c.051-.663.098-1.262.128-1.885 1.371.636 2.403 1.202 4.311.434 3.125-1.257 6.257-2.645 9.47-3.642 4.865-1.51 9.405-3.986 14.495-4.822 1.514-.249 3.189-.53 4.394-1.371 1.297-.905 2.54-.315 3.859-.656.435-1.929 2.414-3.371 2.304-5.449-.116-2.207 3.74-2.494 1.781-5.187 2.374.219 2.828-2.57 5.36-2.286-1.553 1.74-.954 3.635-1.099 5.455-1.879.166-1.927 2.053-2.851 3.129.489.738 1.743-.017 2.061 1.083 5.089-1.572 10.163-3.189 15.268-4.699 3.406-1.008 6.619-2.633 10.164-3.189 1.415-1.957 3.742-.02 5.45-1.358 1.475-1.155 3.421-1.296 5.332-1.619 3.468-.587 6.831-1.9 10.166-3.107.85-.308 1.433-1.358 2.139-2.067.751-1.607-.269-3.403.915-5.17.761-1.136.143-3.204.143-5.061l2.13-1.601c-.049-1.489.436-2.758-1.122-3.335 1.283-.862 1.23-2.286 1.96-3.197l-1.142-1.465c2.947-1.899 2.659-5.206 3.189-8.037.556-2.969 1.926-5.924.92-9.327 4.072-2.649 2.095-7.611 4.369-10.919l-1.104-1.215c2.848-3.319 1.383-8.086 3.856-11.166.315-1.38-1.58-1.637-.397-3.908-.161.317.664.704 1.346.186v-4.068c1.843-1.72 2.037-3.716 2.162-5.874.2-3.453 1.081-6.858 2.686-9.882 1.134-2.136 1.277-4.24 1.249-6.393 2.018-1.946 2.24-4.307 1.865-7.065l1.618-1.086c1.589-5.233 1.439-10.459 4.499-15.198-.497-2.869 1.036-5.718 2.096-8.584-.853-1.135-1.835-.597-2.756-.496-1.491.945-1.179 3.464-3.322 3.839-.512-1.841 1.164-3.242.998-5.016 1.638.47 2.31-.876 3.227-1.746.268-.254.471-.226.702.184.183.502-.231 1.293.536 1.413l1.558-1.324c-1.356-1.239-1.435-2.394-.316-3.84.551-.713.602-1.814-.184-2.688l-2.072 1.982c-1.122.175-2.25-.316-3.35.346-.527.317.315 1.03.126.388l1.73.612c-.788 1.568-2.086 2.821-1.957 4.673-2.747.139-3.817 2.254-4.995 4.255-.469.796-.931 1.629-1.994 1.761.083-.483-.137-.787-.593-.89-.077-.018-.311.217-.294.295.103.458.405.679.886.596.012.817-.129 1.47-.646 2.247-2.749 4.131-5.99 7.962-7.427 12.912-.413 1.423-2.075 2.433-2.861 3.807-.912 1.595-2.009 3.041-2.593 4.933-.506 1.641-2.489 2.622-2.818 4.858-.182 1.235-1.932 2.456-3.591 2.831l1.089 1.201c-.581 2.044-2.209 2.966-4.082 3.727l.971 1.13c.763 1.54-2.34 1.64-.87 3.292l-2.812.328c-.668.939-.251 1.566.46 2.086-.097 2.451-2.49 2.81-3.73 4.246l.993 1.092c-1.006 4.097-3.84 6.859-6.972 9.098-.185 1.088.562 1.358.933 1.866-1.976 3.915-1.976 3.915-4.656 5.644.114 2.936-3.2 5.021-2.148 8.51-2.804.319-3.359 2.56-4.169 4.627l1.176 1.812c-1.548.899-2.294 2.741-4.133 3.396v2.836c-.24 1.279-2.22.134-2.021 1.761h-1.996c.149-1.026-1.67-1.325-.854-2.699l1.719-.611c-.139-3.984 2.109-7.111 4.201-10.171 1.202-1.757 1.328-3.88 2.457-5.489 1.107-1.578 2.145-3.03 2.499-4.999.417-2.325 2.113-3.9 4.001-5.603-.507-1.661.044-3.485 1.018-4.796 3.008-4.048 4.429-8.917 7.016-13.109 3.437-5.568 5.828-11.694 9.599-17.091 1.438-2.058 1.829-4.955 3.324-7.087 3.598-5.127 6.657-10.59 9.671-16.042 1.093-1.977 2.654-3.53 3.845-5.347 2.167-3.304 4.875-6.314 7.246-9.541 2.349-3.197 5.806-5.212 8.861-7.594 1.369-1.068 3.601-2.401 5.674-.307.438.443 1.52.244 2.686.388-.811 2.5 1.118 4.485.974 6.996-.127 2.206 2.235 4.45-.206 6.752 2.261 2.834.876 5.287-.907 7.791 3.107 4.351-1.5 7.439-1.67 11.904 1.526 3.422.993 5.888-2.253 8.137l1.793.657c.013 1.122-.921.428-1.582 1.09.739 1.039.996 2.493.669 4.204-.22.577-.997.302-1.651.577-.344 1.276-.264 2.776-1.387 3.906l1.071 1.612-1.909.694c.139 1.523-.223 3.037.372 4.699.373 1.043-.361 2.487-.589 3.702l-1.918.664c1.272.839 1.182 1.986 1.065 3.141-.365.886-2.202-.035-1.947 1.639-.007 1.293 1.375.464 1.843 1.19.862 1.674-1.667 2.092-.704 4.293l-1.446-1.453c-.821.1-1.14.847-1.653 1.349.383.848 1.711.008 1.743.157.567 2.547-.944 2.11-1.593 2.613-.702 1.395.167 2.427.821 3.534-.274 1.195-1.613 2.11-1.013 3.533-.3.82-1.072.556-1.671.787-.863.946.434 2.769-1.302 3.38.411.519 1.12.819.969 1.655.059 1.383-1.407.424-1.788 1.118-.456 1.66-.376 3.197.815 4.535-1.581 3.195-2.179 6.736-3.835 9.953-.775 1.506-.887 4.199 1.021 6.211-1.415 1.498-1.334 3.437-1.068 5.647l-3.278 2.651c.791 1.267 2.161 1.636 2.174 3.1-.738 1.001-2.434.772-2.994 2.336-.861 1.563 1.48 2.67.976 4.33-.033 1.486-2.041 1.693-2.004 3.232-.216 1.543 1.219 2.473 1.524 4.104l4.063-2.15c.833-3.901 1.566-7.592 2.424-11.253.486-2.073 1.191-4.13.943-6.267-.27-2.332.37-4.485 1.073-6.586a71.574 71.574 0 0 0 2.872-11.801c.163-1.057 1.436-1.446 1.024-2.742l-.883-1.063 1.91-2.011-1.136-1.248 2.069-4.067c-.114-5.485 2.241-10.879 3.66-17.13l-1.379-2.729c.857-.488 2.167-.691 2.755-1.862-.632-1.102-1.821-.146-2.624-.708-.535-.328-.262-.874-.314-1.34.697-1.027 1.906-.069 2.738-.73.64-1.018-.354-2.627 1.268-3.383l-1.968-.767 2.733-1.709c.634-6.271 2.082-12.409 3.475-18.737l1.612-1.619c-1.096-1.353-1.47-3.066-.51-4.363 1.082-1.461.307-2.884.625-4.275h3.993c.753 3.156-.882 6.04-1.04 9.106-.145 2.824-1.24 5.529-1.65 8.286-.374 2.518-1.293 4.948-1.282 7.512.004.807-.555 1.131-.955 1.604.191.6 1.1.76.933 1.575-.151 1.279-1.57 1.605-2.096 2.931-.564 1.225.999 2.078 1.146 3.659l-2.02 1.456v6.331c-.353.839-1.145.533-2.03.992 1.113.866 1.528 2.343.844 3.168-.887 1.071-.882 2.091-.808 3.199.108 1.618-1.806 1.836-2.041 3.228.754 1.514 1.673 2.835.136 4.732-.834 1.029-1.463 2.779-1.143 4.506.33 1.782-.537 3.425-.823 5.118-.202 1.191-1.298 1.855-1.154 3.069.508 4.281-1.126 8.101-2.699 11.904-.328.793 1.434 1.519-.08 2.143-.285 4.777-1.367 9.429-2.178 14.124-.168.973-.024 2.001-.026 3.002-.525 1.137-2.268 1.51-1.957 3.198.983.914 2.681.799 3.208.339 2.028-1.772 4.918.083 6.743-1.907 2.319.515 4.224-1.154 6.572-1.15 2.556.004 4.925-1.656 7.623-2.069 1.472-.225 3.062-.985 4.597-.725 1.63.276 2.501-1.251 4.093-1.13 4.658.353 8.889-1.852 13.342-2.569 3.924-.632 7.844-2.055 12.199-1.256l1.463-2.037c1.616-.168 2.758-.256 3.527.915.528-.696 1.128-1.102 2.083-1.028 3.391.264 6.621-.432 9.719-1.818.279-.125.628-.194.927-.156 4.591.594 9.022-.897 13.544-1.219 5.188-.37 10.514-.026 15.531-.99 7.406-1.424 14.742-.227 22.074-.835 2.148-.178 3.84 1.5 6.088 1.1 1.851-.33 3.749-.103 5.618.813.824.404 1.866.505 2.42 1.331.719 1.072 1.733.733 2.69.793 1.12 2.615 3.852 4.161 4.655 7.133-1.141 1.918-2.151 4.002-2.395 6.786 1.728 1.472-.533 3.119-.95 5.029h-2.306l-.765-1.873c-.422.058-.966-.025-1.295.204-1.744 1.214-3.533 2.188-5.751 1.717-.524 2.305-3.137 2.254-4.014 4.21-1.427-2.4.386-3.448 2.043-5.368-6.331.849-11.935 1.827-17.39 1.019-2.298 1.293-4.312 2.322-6.867 2.295-2.183-.023-4.454-.828-6.679.694-1.675 1.146-4.258-.822-5.994 1.142-1.245-1.687-2.376.245-3.64.16-4.808-.324-9.435 1.243-14.104 2.095-1.497.273-3.075 1.055-4.593.751-1.665-.333-2.617.97-4.075 1.188-5.862.876-11.698 1.929-17.434 3.591-2.198.637-4.615.992-6.96 1.312-2.477.338-4.817 1.163-7.203 1.84-2.224.631-4.564.46-6.778 1.819-1.633 1.002-3.9 1.028-5.908 1.336-5.262.808-10.445 2.045-15.545 3.485-2.967.838-6.037 1.807-8.957 2.298-3.581.602-5.845 2.368-8.134 4.726l1.146 1.288c-1.675 1.57-1.066 3.758-1.209 5.722-.339.98-1.701.026-1.872 1.147.32.557.863.353 1.629.451l-4.881 21.67c-.698.819-1.888-.055-3.207.868l2.574 1.101c-.54 2.517.597 4.478-1.213 5.89.954 1.406-1.676 2.707-.12 4.131-1.72 1.47-.301 3.53-.937 5.124-.657 1.646-.464 3.616-1.299 4.946-1.05 1.672.133 3.593-.75 4.681-1.197 1.476-.209 3.356-2.877 4.852 4.336-.66 7.087-1.776 10.002-2.33 2.715-.515 5.216-2.206 8.39-1.769 1.83-2.496 4.981-2.311 7.571-2.938 6.649-1.61 13.148-3.764 19.802-5.369 3.812-.92 8.16-.803 11.442-3.626 2.124.245 3.95-1.459 5.988-1.123 2.228.368 4.431-.425 5.967-1.276 1.922-1.064 4.031-.295 5.848-1.699 2.099-1.622 4.966-2.021 7.582-1.998 2.168.019 4.141-.483 6.049-1.174 1.691-.612 3.311-1.078 5.1-.938 1.462.114 2.735-.493 4.106-.899 3.293-.975 6.739-1.429 10.12-2.107 2.751-.552 5.52-.929 8.225-1.816 2.223-.729 4.667-.497 7.04-.998 3.562-.752 7.218-2.13 10.775-1.034.747-.541 1.009-1.301 2.087-1.119l1.467 1.062c1.879-1.557 4.5-.41 6.35-1.278 2.138-1.003 4.147-.923 6.147-.759 4.935.405 9.642-1.535 14.564-1.115 1.912.163 3.739.299 5.596.972 1.903.689 3.995-.351 6.149.897 1.42.823 3.546 1.074 5.226 1.776.952.398 1.922.072 2.732.556l.645 1.806h2.083c2.027 1.826 3.655 4.156 6.646 5.174-.395 3.101.732 6.202-1.075 9.053l2.007 3.701c-1.785 2.351-1.785 2.351-4.317 1.333l-2.557 1.208.885 1.394c.426 1.16-1.581 1.373-.554 3.131.973.563 2.6-.05 3.577.064 2.35-.829 2.429-3.289 4.259-4.176 1.095 1.325.612 2.623.597 3.899l-1.744.68.852 1.512c.411 1.734-2.097.53-2.034 2.092.053 1.315-1.341 1.766-2.046 2.635-.73.9-1.563 1.716-2.256 2.467h-2.178c-.843.665-.311 1.572-.525 2.566-3.1.928-5.556 3.896-9.367 3.416l-1.806 1.727c-2.544 1.032-4.271-.866-6.353-.832-.588-1.259-1.178-2.517-1.788-3.818l-3.422-.182-.161-1.566c3.988-.661 7.869-1.706 12.542.451-1.032-1.963-2.271-2.515-1.341-3.582 1.675-.911 2.497 1.861 4.029.808 1.387-.262-.069-3.471 2.634-1.872v-2.809c-.888-.679-.886.661-1.584.534l-.59-1.661c-1.024-.718-1.661.164-2.434 1.064l-.403-1.961c-.159-.274-.36-.298-.635-.084-1.577 1.224-3.759 1.675-4.352 4.143-.172.716-1.735 1.095-2.449 1.507-4.826-1.486-9.926-.785-14.39-2.908-2.727 1.3-2.727 1.3-5.002-.477-.827-1.374 1.977-1.629.573-3.267.093.051-.172-.211-.451-.227-5.056-.291-9.966 1.691-15.053.986-5.327 2.502-11.429 1.712-16.821 3.979-.566.238-1.32.075-1.982.025-5.026-.38-9.674 1.287-14.342 2.752-.662.208-1.279.3-1.879.238-5.052-.521-9.781 1.253-14.634 2.085-1.322.227-2.53 1.124-4.302 1.953-1.467-.004-3.543-.154-5.456.98-1.852 1.097-3.918 1.35-5.632.95-3.357 2.121-6.718 2.971-10.167 3-2.3.019-4.558.251-6.531 1.172-2.178 1.017-4.543.955-6.741 1.805-1.184.458-1.817 1.276-2.985 2.134-3.411-.308-6.934.452-10.284 1.996-2.319 1.07-4.905.785-7.314 1.609-2.194.751-4.406 1.932-6.922 1.417-.593-.121-1.182.092-1.823.387-3.446 1.586-7.214 1.955-10.905 2.58-.78.132-1.471.119-2.261.603-3.17 1.942-6.556 3.318-10.402 2.149-.971 4.976-1.067 9.777-3.393 14.021 1.122 4.831-2.528 8.96-1.991 13.762l-1.96 2.081 1.127 1.264c-1.062 2.167-2.598 4.191-2.444 7.466l.382.43c-1.631 2.356-1.471 5.335-1.925 8.049-.55 3.284-1.14 6.51-2.172 9.665-.595 1.819-1.209 3.609-1.022 5.602.241 2.577-1.918 4.2-2.29 5.615-.826 1.425.103 1.379.08 1.849-.771 6.003-3.634 11.596-3.755 17.781-1.285.998-.883 2.629-1.409 3.924-.882 2.172-2.059 4.375-1.561 6.854.348 1.735-1.543 2.795-1.144 4.628.12.55-1.215 1.419-1.867 2.125-.1 4.029.492 8.087-1.753 11.844-.592.991-.403 2.611-.197 3.881.238 1.463-.935 2.283-1.177 3.58-.788 4.224-1.155 8.5-1.838 12.731-.111.687-.586 1.211-.672 1.716-.369 2.178-1.812 4.1-1.387 6.475.338 1.888-.748 3.342-1.982 5.008.28 4.561-.641 9.186-2.581 13.616-.542.778.631.809.567 1.505-1.536 3.585-2.156 7.613-2.337 11.388-.19 3.983-1.338 7.711-1.768 11.595-.433 3.901-2.132 7.653-1.816 11.675l-2.292 2.638 1.279 1.698c.15 1.312-1.777 2.033-1.034 3.572.625 1.295-1.158 1.868-1.001 3.089.152 1.186-.476 2.528 1.165 3.271-1.181.648-1.976.444-2.825.331l-.647-1.718c-.451-.227-.902-.287-1.494.142-.58.562.681.47.498.799.518.87-.738.901-.375 1.9h3.723c-.116.818-.023 1.403-.271 1.686-.846.963-1.897 1.76-2 3.158-1.429.027-.211-1.519-1.074-1.718-1.654-.674-2.763 2.238-4.488.559-.515-1.312.043-1.791 1.331-1.701.845-.849.624-3.388-.552-5.983 2.541-3.318-.145-6.155-1.034-9.468l3.229-3.248c-3.092-4.73 1.347-8.066 1.358-12.24-.767-.435-1.927-.03-3.332-.121.216 4.603-2.967 8.036-4.193 12.261l1.003 1.507c.347 1.038-.981 1.256-.993 2.173-.108.507.24.854.678 1.259-1.274 3.112-.343 6.5-.788 10.059l-1.339-1.113c-1.098.673-.37 1.681-.42 2.588.855.677.866-.634 1.466-.588.445.286.424.784.41 1.254-.242 1.122-1.571.282-1.974 1.172v2.858c-1.162 1.728-2.806 2.724-4.804 3.587-.276 1.997-.221 4.122-1.464 5.848-1.783 1.191-2.887-.859-4.407-.931-.666-.704-.135-1.588-.351-2.36l-1.886-1.895.901-1.17c-2.369-1.242-1.737-4.028-3.171-5.745l.667-.67-2.256-2.265c-.337-2.809-.387-4.402.895-5.884-3.076-2.883.894-5.004.032-8.834-1.792-2.074 1.442-4.668 1.846-7.579l-1.239-1.334c1.707-1.424.5-3.894 1.405-5.249 1.173-1.758-.086-4.023 1.707-5.347-.859-1.734 1.834-3.378.13-5.134 1.088-1.648.529-3.8 1.461-5.393 1.12-1.914-.407-4.28.758-5.661 1.521-1.804-.045-3.876 1.262-5.552 1.299-1.665-.036-3.862.749-5.689.736-1.714 1.744-3.375 1.719-5.284-.025-1.962.682-3.764.904-5.615.23-1.919 1.432-3.515 1.221-5.593-.186-1.834.516-3.922 1.134-5.499.715-1.823.122-3.864 1.356-5.447 1.243-1.596-.652-4.028 1.392-5.416l-1.037-1.124c.959-2.817 2.395-5.52 2.071-8.669-.178-1.728.887-2.983 1.927-4.284-.229-4.294 1.774-8.225 2.514-12.414.652-3.69 1.916-7.277 2.467-10.977.766-5.143 2.283-10.092 3.61-15.072.567-2.126-.004-4.365 1.294-6.49.754-1.235 1.052-2.897 2.174-4.268-.918-4.475 3.358-8.28 1.751-12.87 1.521-.639.881-2.352 1.886-2.814-1.197-3.375 1.086-6.204 1.43-9.288.362-3.249 2.158-6.281 1.867-9.681 2.753-3.314 3.473-7.309 4.221-11.558-3.164-.916-5.698.714-8.34 1.409-2.379.625-4.721 1.44-7.014 2.34-2.643 1.037-5.522 1.51-8.184 1.766-3.24.312-6.1 1.615-9.073 2.427-3.04.83-6.004 1.729-9.154 1.934l-1.751 1.761c-2.159-.074-4.423.98-6.788 1.713-2.07.642-4.062 1.557-6.416 1.498-2.824-.071-5.387 1.303-8.271 2.952-1.493.383-3.774-.785-5.724.783l-.887-.79-1.783 1.791c-3.723.453-7.389 1.153-10.668 3.824.084 3.414.196 7.148-1.194 10.722-.534 1.115-1.407 2.013-2.795 1.849v1.838l-1.996 1.003c.025-.694-.307-1.028-.998-1.003v-3.504c.689-1.039 1.891-.107 2.655-.673l1.191-2.513c-.67-.918-1.928.23-2.912-.925l2.323-5.049c-2.411-.716-4.665-.179-6.667-.391-1.053.733.106 2.43-1.764 2.287l1.195 1.342c-1.694 5.237-3.106 10.501-4.008 15.897-.895 5.36-2.684 10.604-1.903 15.999l-2.124 2.134c.872 4.071-1.538 8.052-.978 12.327.149 1.135-.723 2.138-1.126 3.019-1.248 2.726-1.057 5.165.274 7.77l-1.913.675-2.889 16.246c.001.006 1.317-.874 1.679.083 0 .253.142.743-.021.889-2.034 1.814-2.884 4.206-2.915 6.787-.025 2.065-.62 3.736-1.991 5.316.158 3.446-1.235 6.679-2.056 9.999l1.173 1.282-2.204 4.197c-.125.615.476.991.922 1.452-1.172 6.631-3.581 12.936-4.121 19.799-.372 4.738-.996 9.649-2.495 14.381-.771 2.432-.777 5.334-1.284 7.997-.27 1.418.404 2.475 1.021 3.529-2.28 5.327-4.132 10.645-2.407 16.658-1.288.586-2.632 1.946-4.606 2.033l1.732.598c1.147 2.483-.571 5.071.216 8.762-.006.083-1.377.708-1.594 1.986l-.747-2.06c-.898 1.061-.455 2.167-.582 3.128-1.261.07-1.051.87-.768 2.005h1.766c-.129.617.316 1.344-.435 1.93l-1.144-.94c-.909 2.721-1.879 5.362-1.293 8.522l-2.93 2.141c-.925-1.301.284-2.452.903-3.881l-1.862-2.118c-1.001-1.901.863-2.669.793-3.957a847.4 847.4 0 0 0-.955-1.312c-.234-1.153.636-1.341.994-2.212-.632-1.743-2.215-3.804-.061-5.865-.372-2.361.923-4.958-.941-6.999 1.584-4.554.852-9.528 2.818-14.092-.253-.501-1.075-.119-1.583-.499-.098-.294-.367-.684-.266-.865.631-1.129 1.241-2.213.983-3.611-.483-2.627.11-5.248 1.122-7.537.584-1.322-.433-2.828.861-3.825-.761-4.617 1.709-8.981.94-13.512 1.185-.846.889-2.991 2.885-2.846-.028-1.067-.871-.545-1.408-.744-.907-.955-.213-2.182-.48-3.529l1.804-1.206c.695-3.061-.653-5.646 1.198-7.796-2.543-2.707.253-5.011.643-7.479.091-.575.722-1.264.153-1.686-1.52-1.127 1.979-3.052-.792-3.783 1.781-1.636 1.792-3.684 2.125-5.78.721-4.531 1.08-9.127 2.221-13.586.071-.278.449-.478.68-.71l-.991-1.071c.807-2.882 2.085-5.635 2.002-8.705-.009-.334-.134-.755.019-.989 2.466-3.781 1.272-8.188 2.155-12.167.983-4.428.888-9.106 2.816-13.322-.709-2.989 1.639-5.621.892-8.65l2.251-2.534c-2.677-3.33 1.275-6.538-.27-9.605l2.021-2.031v-7.91c1.804-1.806 1.904-4.335 3.076-6.595-5.113.59-9.621 2.695-14.47 2.798-1.303.028-2.097.865-2.985 1.285-3.003 1.419-6.173 2.207-9.338 2.715-4.035.648-7.856 1.956-11.648 3.271-2.224.771-4.539 1.038-6.711 1.85-2.738 1.024-5.963.698-8.267 2.992-1.637 0-3.299 0-4.96.002-2.14 2.284-5.454 2.173-7.87 3.894-4.981-.122-9.464 3.217-14.586 2.119.187-.833-.797-.929-.891-1.586 1.845-1.191 3.906-1.8 6.146-1.35 2.096-2.395 5.346-2.393 7.723-4.08-.083.483.137.787.593.89.077.018.311-.217.294-.295-.103-.458-.405-.679-.886-.596-.115-.615.26-.959.756-.984 1.281-.063 2.567-.021 3.755-.021 1.043-1.24 2.454-1.733 3.717-1.91 1.478-.207 2.925-.189 3.727-1.618.709-1.276 2.816.597 2.586-1.471 2.462-.134 4.688.55 6.383-1.059 1.397-1.327 4.134-.177 4.933-2.983-4.153-.059-7.63 1.359-11.316 4.042zm325.82-88.27c.085-.481-.135-.785-.591-.888-.077-.018-.311.217-.294.295.103.458.405.679.893.602-.085.481.135.785.591.888.077.018.311-.217.294-.295-.103-.458-.405-.679-.893-.602zM235.568 114.526c-1.298.261-2.629-.755-4.578.852 1.984-.237 3.305.406 4.261-.939 1.289-.319 2.453.46 3.366-.779-.526-.119-.948-.267-1.379-.299-.604-.046-1.26-.148-1.67 1.165zm212.616 142.208c-.085.481.135.785.591.888.077.018.311-.217.293-.295-.103-.458-.405-.679-.91-.72-.113-.575.44-1.502-.642-1.883-1.321-.162-1.547.98-2.974 1.883 1.811 0 2.724 0 3.642.127zM213.617 316.89h2.187l2.44-1.831c-2.599 0-4.449-.015-6.297.035-.116.003-.218.517-.327.793-.932.115-1.919-.271-2.964.399 1.351.413.295 2.442.861 2.512 2.702.249 1.616-1.633 2.663-1.909l1.437.001zm-52.032 14.053c-2.922-.178-5.873.09-8.408 2.052-.603.467-.608 1.071-.216 1.682 1.381.759 2.321-.22 3.489-.65 1.149-.422 2.573-.092 3.906-.092.465-.891 1.691-1.246 1.336-3.485 1.714 2.364 3.315.988 5.126.594 1.888-.411 3.762-.17 3.903-3.012h-4.622c-1.148 1.327-3.082 1.287-4.514 2.911zm-26.821 8.005c-2.128-.081-4.262-.185-6.069 1.837 2.368 0 4.552.013 6.736-.036.116-.003.221-.52.332-.798h3.927l2.484-3.035c1.829.167 3.372-1.073 4.916.027 1.031-1.993 3.447-.162 4.668-1.528l-.189-1.346c-4.164-.703-7.924 1.117-11.684 2.385-1.731.584-4.096.306-5.121 2.494zm280.477-163.435c1.296.517 1.962-.881 3.056-1.012 1.268-.152 2.604.4 3.834-.313-.437-1.104 1.004-1.497.79-2.676-2.893.499-5.786.997-8.674 1.518-.029.005-.004.312-.004.478-3.324-.085-6.378 1.135-9.783 1.705l-.341-.313c-7.828.749-15.055 2.618-22.552 3.917-.265.497-1.31.699-.797 1.755-3.803-.182-7.109-.16-10.004 1.903-1.306-1.517-2.858-.858-4.27-.839l-.357 1.754c-3.257.018-6.161 1.918-9.059 1.149l-1.633 1.351c1.596 2.359 3.703-1.235 5.374.633 1.901-.959 3.924-1.166 6.46-.885l1.074-1.543c2.103-1.162 3.652-.106 5.338-1.196 1.303-.842 3.446-.372 5.229-.487.453-.451.921-.917 1.385-1.884 2.692.776 5.344 1.834 8.109.05.611-.395 1.547-.075 2.164.68.219.268.845.199.957.221 1.178-.369.372-1.362.293-1.318 1.693-.976 2.924-.254 3.854-1.413.6-.748 2.161.157 2.998-1.075.868-1.277 1.351.955 2.761.364 4.351-1.826 9.229-1.438 13.798-2.524zm-173.676 59.158c.162-1.609-1.685-.528-1.992-1.512.896-.6 1.128-1.476.999-2.503.479.086.781-.135.884-.593.017-.078-.216-.312-.294-.295-.456.104-.676.407-.595.893-.939.182-2.082-.492-2.815.369-1.161 1.364-2.779.177-4.104.969-1.288.769-2.521 1.989-4.274 1.67-1.237 1.978-3.9.014-5.186 1.906-1.364 2.008-4.04.463-5.613 2.086-1.227 1.265-2.925 1.069-4.381 1.023l-2.57 2.481c-.052 2.787.435 5.614-1.021 8.125-1.485 2.563-.478 5.435-1.229 8.003-.197.673-.36 1.901-1.32 2.484-.624-.122-1.279-.155-1.418.773 1.368 2.712.891 5.249.143 8.192-1.596 6.279-1.259 6.366-3.016 8.042-1.734.283-2.835-.947-4.11-1.701-.264-1.17.412-2.058.818-3.01-.588-.445-.985-.938-.79-1.791l1.918-2.03-.911-1.047c1.154-.974 1.37-2.73 2.866-2.973.442-1.411-1.808-1.897-.565-3.357l1.011-.089c1.159.291-.02 1.804 1.632 1.808 0-1.268 0-2.563.122-3.831l1.669-.13c-1.092-.647-.415-2.215-1.669-3.176 0 1.444 0 2.362-.122 3.279-1.504.256-2.381-.545-3.062-1.927l2.135-4.099v-5.557c.815-.983 1.589-1.809 2.923-1.452.608.113.923-.259.979-.76.075-.673-.042-1.317-.979-1.245.112-1.37-1.128-.831-1.718-1.187-.627-.378.241-1.695-1.017-1.632l-.595 1.719c-.903.311-1.67.032-2.512.363-1.904.747-.441 2.883-1.787 3.713-.411.214-1.279-.2-1.166.759.621.446 1.438.07 1.791.802-.978 1.977-.978 1.977-1.053 5.09-1.807 1.147-.866 3.39-1.885 4.873 2.535 3.008.038 4.049-2.304 5.262 1.051 1.581 1.803 3.175 1.053 5.034-1.092.279-2.106.722-2.784 1.806.083 2.334-.476 4.811 1.084 6.769-.499 1.105-1.813.286-2.302 2.278v6.321l-1.578.33c.059 1.22 1.627 1.391 1.539 2.59l-1.634.569c-.844 1.499 1.662 1.845.776 3.35l-1.849.652c-.144 3.17.365 6.486-1.023 9.751 3.184-.318 4.654-2.761 6.01-3.268 2.254-1.878 1.965-3.698 1.98-5.464.014-1.656-.306-3.435.186-4.941a37.51 37.51 0 0 0 1.748-8.772c.104-1.327.672-1.998 1.704-2.532.992 1.861 3.223-.035 4.323 1.385l-3.108 17.96c1.27-.82 2.064-.425 3.109-.791 2.791-.977 5.242-2.677 8-3.598 2.783-.928 5.583-1.61 8.276-2.959 3.134-1.571 6.627-2.484 9.952-3.655 3.326-1.171 6.722-2.468 10.143-3.167 2.325-.475 4.816-2.323 7.619-.873-.9.878-2.11 1.261-2.494 1.735-1.388 1.711-3.651-.089-4.912 1.649-1.052 1.451-2.991 1.631-4.39 2.571-.777.522-1.505.434-2.241.666-1.904.6-4.028 1.021-5.554 2.186-2.575 1.967-5.589 2.628-8.413 3.869-1.728.76-3.818 1.129-4.664 2.842-1.289.319-2.453-.46-3.225.587.269.629.783.49 1.236.5.608.013 1.261.139 1.663-.999 1.086-.149 2.131.141 3.263-.611.945-.627 2.009-1.562 3.392-1.398 1.902.226 3.315-.811 5.036-2.005 2.033-.046 4.214-.225 6.506-1.502 3.039-1.693 6.68-2.32 10.05-3.362 5.02-1.552 10.161-2.816 15.253-4.188 3.87-1.043 7.748-2.157 11.467-3.636 3.407-1.355 6.705-2.814 10.329-2.313 1.602-1.603 4.004-1.555 5.159-3.081 1.382-3.385 1.166-7.049 3.444-9.799-1.065-2.346-1.017-2.331-.355-4.393 2.195-6.837 4.957-13.531 5.309-20.842 1.41-1.66.492-3.82 1.111-5.555 1.769-4.958 2.829-10.144 5.027-14.827l-.968-1.064c1.172-2.866 2.549-5.538 1.262-9.414-2.491 2.303-5.305 1.644-8.155 1.783-.767 1.781-2.602 2.631-4.149 2.832-1.791.233-3.599.588-4.845 1.572-1.548 1.223-3.79-.457-4.869 1.589-4.096.27-7.512 3.216-11.729 3.008-1.526 1.393-4.189.786-5.045 3.114-2.879-.499-5.233.279-7.257 1.898-3.827.054-7.794 1.297-10.15 3.416-1.612 1.45-1.759 3.607-2.137 5.61h-.996zm38.049 159.807c-.35-1.992-.302-4.058 1.017-5.682l-1.067-1.27c1.097-1.495 1.826.86 3.137-.03-2-2.061-.478-4.975-2.008-7.286.717-.221 1.473.005 2.087-1.465.103-.255-.986-.589-1.169-1.318 1.514-1.271 2.426-2.904 2.883-4.804-.437-.661-1.371-1.067-.998-2.096.352-.882 1.637-.058 1.921-1.065-1.423-3.069-1.423-3.069 2.238-4.986-1.603-.566-1.11-1.814-1.173-2.885.547-.995 1.913-1.359 2.032-2.844-.23-.291-.85-.821-.762-1.002 1.133-2.322.448-5.386 2.708-7.183.986-.784.776-2.124 1.732-2.813.323-.233.272-.472-.07-.664l-1.613-.343c-.227-2.368 1.237-4.182 1.719-6.224.477-2.018 3.621-3.58 1.307-6.227 1.597-1.157 2.369-2.879 2.927-4.707-.255-1.106-1.576-.277-1.973-1.156 1.843-1.025.379-3.081 1.173-4.266.948-.638 2.133.353 2.64-.654l-1.977-3.859c1.034-1.318 2.707-2.226 2.135-4.215 1.782-.709.519-2.682 1.652-3.864 1.108-1.156-.173-3.18.637-4.58l1.598-.336v-5.439c-.705-.424-.934-1.471-2.758-1.319-1.123.233-2.817.954-4.103 2.46.34.898 1.656.022 1.761.496-.476 2.265-1.676 3.541-2.618 4.71-1.408 1.719.869 2.116.837 3.265-1.846 2.245-.16 5.381-2.118 7.349l1.027 1.26c-.385.68-.941.389-1.421.467-1.167 1.833-1.535 4.192-3.491 5.473v7.068c-1.239 1.115-1.57 2.614-2.103 4.034l1.119.462 1.189.492c-1.576 2.279-.799 5.774-4.153 7.06.268.156.535.439.805.443.543.007.921.173 1.161.657-3.038 7.842-3.038 7.842-1.829 10.256-1.572-.251-2.366.682-3.069 1.742.437.466 1.058.83.852 1.863l-1.992 2.236c.405 1.885 1.994 3.043 2.054 4.48-.369 1.221-1.309.552-1.767 1.13-.963 1.904.277 3.598.906 5.329-2.027.426-2.44.62-4.061 1.835.307.518.965 1.118.867 1.543-.886 3.855-1.371 7.777-2.051 11.665-.024.135-.223.238-.284.299l-1.429.297c-.547 1.387.121 2.445.351 2.887-.236 3.03-2.693 5.089-.642 7.816l-2.837.313c.724 2.824.584 5.471-.701 8.051-.747 1.499-.601 3.064.558 4.409-3.402 7.649-4.307 12.885-2.918 17.039-2.579 1.24-1.498 4.687-4.328 6.068 3.446 1.432-1.096 2.941.922 4.378 2.983.104 2.149-4.772 5.662-4.188l-1.071-1.19c.318-1.518 1.894-1.383 2.926-2.426l-2.851-.427c-.89-2.062.9-3.192 1.208-4.772.593.233.777 1.346 1.476.553.434-2.627-.769-5.364 1.064-7.581.146-1.039-1.323-1.188-.997-2.168.023-.888 1.34-1.11.95-2.275.305-.61-1.091-.517-.646-1.508.734-.471 1.917.384 2.636-.544-2.12-2.074-.005-4.116-.037-6.157-.037-2.365.907-4.197 1.947-6.089-1.435-1.203-.74-2.689-.699-4.012l1.963-1.966zm37.793-181.135c-2.343.598-2.057 3.057-2.688 4.692-1.117 2.896-.06 6.01.835 8.888-2.972 2.007-3.889 3.779-2.655 6.56.6 1.351.905 3.084.35 3.638-1.115 1.111-.326 2.603-1.332 3.604l-1.41-3.043c.163 3.77-1.089 6.233-1.846 8.856.673.253 1.438.003 1.778.767-.189.737.392 1.638-.387 2.31-1.048-.233-.371-1.37-1.03-1.91-.456-.374-.924.707-.563.438v3.377c-1.189 2.861-3.379 4.712-.568 7.454-1.715.6-1.242 2.4-2.363 3.359.436.466 1.065.822.837 1.994l-2.82 2.836c-.242 1.366.581 1.581 1.055 2.477l-2.275 1.533c1.989 1.765 3.141-.463 4.683-.467 1.527-.004 2.817-1.222 4.69-1.043-1.374-5.531 2.231-10.35 1.146-15.903 1.892-2.206 2.975-4.687 3.589-8.596l-2.034-.959c.218-.838-.368-1.738.367-2.301.757-.474.623 1.175 1.444.515.75-1.331-.218-2.336-.62-3.549l2.822-2.655c-.354-.955-1.681-.055-1.872-1.014.293-.96 1.286-.158 1.848-1.154v-3.469c1.354-2.434 2.727-4.255 1.776-6.69l-1.738-.611c.678-1.287 1.929-1.633 2.959-2.199.057-3.087 2.66-5.63 1.963-8.708-.688-3.038 2.021-5.785.423-9.476-2.016 1.756-4.773 1.028-6.366 3.284.002 2.308.002 4.639.002 7.165zm-59.341.239c-1.855.186-3.677.308-5.575.849-2.411.687-3.286 1.878-4.369 4.811 3.161-1.669 5.854-1.818 8.211-3.786h4.986l.486-1.877c1.824.336 3.538-.608 5.354-.908 4.626-.763 9.116-1.888 13.267-4.093 2.722-1.446 5.463-2.562 8.458-1.932 2.752-2.678 6.896-1.523 9.399-4.207h5.012c-.308-1.46 1.836-2.061.872-3.722-3.02 1.544-6.87.821-9.242 3.828l-1.234-1.24c-2.312 1.665-5.096 2.602-7.934 3.25-5.885 1.343-11.59 3.182-17.195 5.424-1.694.678-3.341 1.775-5.305 1.625-2.036-.155-3.767.454-5.191 1.978zm2.518 250.144c-.255 1.813.571 3.82-.445 5.33-.983 1.46.03 3.1-.697 4.193-.915 1.377-.458 3.112-1.636 4.338-1.193 1.241.644 2.455.225 3.738-.078.24-.219.46-.33.688 1.661.871 2.801.134 3.817-1.201.105-2.617-.51-5.455 1.666-7.711.277-.287.317-.885.325-1.341.035-1.827.078-3.658-.004-5.481-.08-1.791 1.644-3.257.98-5.055-.598-1.62 1.607-3.028.18-4.605 1.367-.667.423-2.178 1.068-3.036 1.34-1.784.762-3.543.525-5.28-1.591-.289-2.497.769-2.617 1.442-.34 1.907-1.944 3.151-2.189 5.115-.186 1.489.773 2.381 1.096 3.589-.118.8-1.296 1.082-.991 2.119l.847 1.33-1.82 1.828zm-35.491-239.082h-5.125c-1.115 2.183-3.819 2.647-5.559 4.808h7.183l2.041-2.5c8.495-1.543 15.893-4.156 22.963-8.008-.323-.615.375-1.533-.443-2.235-.936 1.57-2.797 1.002-4.185 1.741-2.09 1.113-4.587 1.741-7.027 2.317-3.398.802-7.079 1.297-9.848 3.877zm129.241-37.735c-2.7-.93-4.795-.194-6.739.974-.571.343-1.027.622-1.72.706-1.071.131-1.869-1.248-3.253-.158-.813.64-2.535.117-3.752.117-1.522 1.738-3.759 1.611-5.622 2.497.391.869-.248 1.786.571 2.448.235-.189.445-.418.704-.554 1.803-.948 3.862.135 5.917-.701l1.546-1.926c4.56 1.451 8.108-2.164 12.348-1.994v-1.409zm85.775-17.128c-1.31-.611-2.951-.678-3.837-.174-2.326 1.322-4.715.941-7.047.812-1.717-.095-2.958.985-4.513 1.155-.24.026-.402.767-.558 1.09.568 1.279 2.038.826 2.656 1.757l1.839-1.847c1.891-.322 4.121.588 5.614-1.243l1.537 1.097c1.08.244 1.359-.491 1.897-.904.675.515 1.215 1.724 2.412.573v-2.316zm-174.69 273.855c-.757 1.478-2.139 1.293-2.871 2.148 1.394-.129 1.965 1.608 3.743 1.421-.426-2.233 3.357-2.862 2.005-5.733-1.258.088-1.917-1.605-3.381-1.177-.821 1.284-.645 2.414.504 3.341zM203.107 230.94c2.543 1.289-.481 2.431.727 3.429 3.592.098 4.653-.99 4.448-4.508-1.799-1.042-2.855.97-5.175 1.079zm259.148-61.642c3.653-1.776 6.595 1.23 9.776 1.076v-2.733h-9.776v1.657zm-8.23-.493c-3.449-1.372-6.437.993-9.586.838-.392.84-.33 1.409.48 2.013 1.768-1.61 4.052-1.159 6.238-1.125 1.397.022 2.338-.398 2.868-1.726zM319.22 196.323c1.055.219 1.952.497 2.886.043 1.38-.671 2.761-1.35 4.072-2.142.238-.144.141-.848.195-1.268-1.158-.74-2.331-.253-3.463-.402l-3.69 3.769zm-80.23-108.03c1.226-.872.016-2.075.901-2.902.672-.628 1.724-1.076 1.682-2.634-.772-.353-1.028-1.759-2.807-1.432.925 2.236-1.161 4.452.224 6.968zm-10.552 224.424l-.015-.675h-6.587l.323.432-1.914.9c1.28.634 1.616 1.887 2.873 1.492.843-.4.095-1.638 1.493-2.149h3.827zm-.039-188.219c4.709-.63 2.101-4.417 4.17-5.792-1.71-.843-2.055.468-2.968 1.092-.141 1.366.399 3.024-1.202 4.7zm-36.59 195.657c-.693 2.053-3.617.79-3.04 3.556 2.251.784 3.826-1.114 6.221-1.093-1.204-.888-2.348-.711-3.181-2.463zm-38.905 161.023l.825-.027c0-1.607-.06-3.216.019-4.819.063-1.278 2.167-2.397.286-3.833l-1.129 1.134-.001 7.545zm87.625-406.69c.172 1.393-.279 2.553.333 3.583.684.326 1.25.261 1.699-.342.174-.765-.336-1.63.339-2.324.519-.293 1.293.031 1.756-.96-1.3-.241-2.515-.356-4.127.043zm-.052 30.93c-1.209.849-1.53-.911-2.591-.859l-1.135 2.449c1.31.213.221 1.949 1.95 2.371-1.827-2.842 2.084-1.229 1.776-3.961zm-38.726 166.986c2.579 1.11 1.252-2.238 3.135-1.674.207.062 1.092-.141.207-1.02-1.015.462-2.344-.601-3.531.633.358.679-.315 1.562.189 2.061zm257.395-104.456c-1.561-1.374-2.073.424-2.596.778l1.061 2.105c.736-1.251 1.882-1.622 1.535-2.883zM302.171 290.962l3.606-1.794c-1.754-.463-2.966-.551-4.118-.119-.34.757-.282 1.325.512 1.913zm-73.056-153.73c1.922.094 3.19.563 4.409-.218l-1.434-1.652c-.499 1.064-1.645.868-2.975 1.87zm196.957 121.849c-.879-.548-1.76-.491-2.652-.045-.339.624-.291 1.187.311 1.708 1.21.096 1.871-.638 2.341-1.663zm-221.587 9.653c-.096-.969.698-1.963-.342-2.979-.54.738-1.663 1.074-1.536 2.081.223 1.066.896.953 1.878.898zm-.822 50.012c.965-.096 1.954.701 2.966-.343-.735-.543-1.069-1.671-2.071-1.543-1.063.223-.95.899-.895 1.886zm29.739-8.555c-.879-.493-1.759-.493-2.728.05.574.922 1.132 1.787 2.422 1.621.565-.47.627-1.034.306-1.671zM243.023 86.3c.843-.627.541-1.504.509-2.261-.029-.679 1.569-.866.499-1.78-.475.06-1.011-.179-1.372.452-.02 1.151-.465 2.424.364 3.589zm-42.721 205.365c.54-.875.483-1.759-.027-2.789-.901.604-1.758 1.153-1.63 2.433.452.587 1.015.651 1.657.356zm-7.393 38.824c-1.388-.795-2.296-.731-3.251-.067l1.265 1.271c.624-.377 1.246-.755 1.986-1.204zm82.445-32.303c-.88-.549-1.76-.491-2.653-.045-.339.624-.291 1.187.422 1.803.286-.359.513-.846.892-1.063.428-.245 1.255.289 1.339-.695zM71.597 280.292c1.615.706 2.946.706 4.561 0-1.615-.706-2.946-.706-4.561 0zm175.804 25.186c1.139.521 1.763.485 2.126-.132.249-.423 1.271-.499.739-1.319-1.509-.655-1.895.748-2.865 1.451zm-.849-.761c-.829.54-1.268.892-1.763 1.127-.415.197-1.322-.191-.905.874.932.084 1.886.544 2.668-.348v-1.653zM242.419 70.59l2.41-.801c-1.427-.775-2.316-.689-3.315-.109l.905.91zm218.839 186.833l-.278-1.457c-.79-.378-1.355-.314-1.821.263-.121 1.279.369 1.804 2.099 1.194zM235.681 107.037l-.279-1.463c-.794-.396-1.356-.319-1.759.176-.283 1.479.347 1.831 2.038 1.287zm-8.379 53.847c-1.507-.316-1.507-.316-1.315 2.115l1.315-2.115zm109.81-2.619c.009-.888.637-1.873-.28-2.881-.596 1.16-.643 2.048.28 2.881zM151.444 496.779c-1.507-.316-1.507-.316-1.315 2.115l1.315-2.115zm78.644-353.486c-.723 1.282-.637 2.173.002 3.273.671-1.191.671-2.078-.002-3.273zm-2.634-17.435c1.267.78 2.157.635 3.262.042-1.162-.72-2.046-.673-3.262-.042zm33.664 176.704c.315-1.514.315-1.514-2.106-1.321l2.106 1.321zm211.151-48.338c-1.276-.727-2.163-.64-3.258.002 1.185.675 2.069.675 3.258-.002zm-263.144-11.522c.725-.678.725-1.347 0-2.025-.725.678-.725 1.347 0 2.025zm19.53-95.789c-.921-.616-1.56-.923-1.941.183.62.498 1.173.532 1.941-.183zm-19.53 153.925c.466-.326.466-.66 0-.985-.465.325-.465.66 0 .985zm1.997-1.002c.466-.326.466-.66 0-.985-.466.325-.466.659 0 .985zm239.063-41.603c.324.468.657.468.981 0-.325-.467-.657-.467-.981 0z" fill="#C3FF5B" data-color="1"></path>
        <path d="M175.606 411.487c-.939-.326-.576-1.458-2.168-1.724.659-1.712 1.767-3.12 1.224-4.772-.485-1.475 1.084-2.793.19-4.669l2.042-1.358c-1.085-3.803 1.492-6.926.739-10.211.881-1.674 2.408-1.666 3.785-1.87.298-.998.595-1.931-.258-2.835l-.936 2.021h-1.078c-.961-.948.671-1.11.571-1.89-.147-1.147 0-2.328-.045-3.492-.143-3.718.733-7.254 2.435-10.471.877-1.657.439-3.191.538-4.77.197-3.132.835-6.058 3.023-8.449h.998c-.201 1.629 1.788.478 2.015 1.739.138.599-.221 1.113-.78 1.515-.297.648.424.709.743 1.523-.935 1.631-1.168 3.793-.952 5.893l-2.015.717c.417.748 1.375 1.141 1.196 1.605-.58 1.4-1.835.633-2.145 1.708l2.102.749c-1.676 2.427-1.04 5.181-1.193 8.117l-2.95 2.49c-.188 2.042 2.099 3.228.574 4.943-1.138 1.28.056 3.144-.69 4.189-.976 1.366-.377 3.212-1.746 4.34-.26.214-.138.931-.142 1.416-.015 1.503.584 3.492-.15 4.389-.976 1.193.45 2.342-.719 3.517-.722.726-.134 2.768-.134 4.64l-1.482-1.305c-.163.224-.537.62-.486.686 2.146 2.798.471 5.516-.448 8.04-.415 1.14-.43 2.17-.579 3.26-1.022.145-1.883-.12-2.496-.983l-1.343 1.248c-.287-3.497-.511-6.618 2.76-9.946.061.167-.432.641-.953 1.141.639.633 1.272.777 2.012.057-.03-.394-.063-.824-1.059-1.198zm11.208-48.607c-.422-.964.228-1.953-.72-2.964l-1.244 3.059 1.964-.095z" fill="#C3FF5B" data-color="1"></path>
        <path d="M226.593 171.503c.764 3.296-1.665 6.252-.96 9.487l-1.801 1.809c-.078.299-.28.631-.214.894.716 2.825-.583 5.473-1.23 7.997-.533 2.081-.604 4.067-.81 6.159-1.328 1.92-2.371 3.996-1.902 6.564l-1.612.158c-1.025-1.164.066-2.643-.779-3.837l-2.68-.31c.854-1.052 1.133-2.136 1.056-3.375-.068-1.094-.541-2.415.333-3.304 1.158-1.178.545-2.518.552-3.745.006-1.049 1.508-1.885.15-3.237-.74-.737.542-1.986.833-3.006.344-1.207.081-2.588.081-3.792 1.043-.739 2.052-.312 2.994-.439 1.493.086.848 1.245 1.003 1.987-.604.029-1.2.075-1.686.113-.446.783-.448 1.337.11 1.845.868-.02 1.826.451 2.495-.353-.178-.651-1.086-.761-.919-1.605.881.084.996-.496.994-1.18-.002-1.272-.001-2.543-.272-3.733.914-.26 1.804.376 2.191-.679-.69-.67-1.325-.586-2.191.679-.817.162-1.482.831-1.725 1.924-1.649.015-.562-2.144-1.894-2.391 1.003-.984.655-2.83 2.545-3.364l.978.778.868-2.086-.422-.528c.599-.735 1.309-.308 1.918-.432.085 1.499 1.239.85 1.996 1.002zm-6.987 23.709c1.533-1.986.752-3.736 1-5.187l-1.517-1.442c-.723.519-.589 1.283-.439 1.84.247.913-1.212 1.05-.792 1.943.592.322 1.376.015 1.748.732 0 .473 0 .97.04 1.427l-1.722.135c-.446.786-.445 1.341.161 1.89l1.413-.119c.052-.665.098-1.264.108-1.219z" fill="#C3FF5B" data-color="1"></path>
        <path d="M276.5 148.441h1.996c0 .499.214 1.221-.034 1.461-1.779 1.717-2.637 3.765-3.253 6.174-.34 1.333-1.057 3.082-2.666 3.747.013 1.225-.451 2.489 1.064 3.055l-2.571 2.582c-.766.215-1.639-.307-2.349.349 1.311 1.493.686 3.308.837 5.112l-4.141 3.692c1.054 3.29-1.579 5.258-2.153 8.101-3.145-3.802-.522-6.894.706-10.076.329-.853 1.508-1.148 1.609-2.331.396-4.642 2.997-8.165 6.011-11.626v-1.882l1.743-.632c-1.29-3.249-.748-4.796 2.427-6.707.436-.261.887-.389.774-1.019z" fill="#C3FF5B" data-color="1"></path>
        <path d="M170.697 445.231c-.158.812.733.972.964 1.617-1.195.627-2.436.426-3.749.213-1.113-3.607 1.858-6.855.639-10.442l1.942-.673c1.049-1.551-2.103-2.532-.74-3.866 1.196-1.17.518-2.762 1.431-3.906 1.113-1.395.125-3.158.687-4.689.875-.605 1.878-.188 2.818-.313h.998v2.006h-2.482c-.597.471-.655 1.046-.336 1.694.666.586.69-.354 1.483-.481.462.84.796 2.306 2.491 2.29-.67 2.428-2.892 4.347-2.091 6.961l-1.907 1.916c.443 1.488.157 2.706-1.405 3.6-1.062.608-.597 1.355-.743 2.068v2.005zm-.993-5.514c.327.467.66.467.988 0-.328-.467-.66-.467-.988 0z" fill="#C3FF5B" data-color="1"></path>
        <path d="M186.667 356.996h-.998c.168-1.766-1.728-3.261-.933-4.964.699-1.496 1.143-2.911.872-4.276.339-1.278 2.232-.175 2.057-1.79l1.996-1.003c2.161 3.343.623 6.577-.303 9.821-.381 1.339-2.469.641-2.691 2.212z" fill="#C3FF5B" data-color="1"></path>
        <path d="M358.185 59.974c-1.25.445-2.654-.166-3.431 1.143-1.125-1.215.09-1.753.665-2.541l-1.842-.649c.795-1.97 1.169-4.004 1.282-6.868l.827-.797c1.38-.305 1.733.608 2.499 1.227v8.485z" fill="#C3FF5B" data-color="1"></path>
        <path d="M166.671 466.287h-1.456c-1.032.69-.121 1.887-.695 2.694-.365.506-.88.271-1.346.28-.155-.269-.444-.54-.441-.806.026-1.742.163-3.379.803-5.132.533-1.46.447-3.046 1.804-4.269.92-.83.075-2.209.572-3.523.791-.995 1.881-1.889 3.538-1.028.701 1.175.552 1.357-2.418 2.853l-2.1 7.731c.068.138.501.166.985.222.498.055.952.309.754.978z" fill="#C3FF5B" data-color="1"></path>
        <path d="M226.593 171.503c-.757-.151-1.911.497-1.996-1.003.208-1.61-1.726-.491-1.969-1.652l1.823-.632.131-1.241c-.184-.185-.366-.424-.408-.401-.66.356-1.07 1.254-2.102.864-.881-.816-.634-3.968.529-5.962l.998 2.005c.737 1.518 2.349 1.539 3.993 2.397 0 1.44.035 3.165-.023 4.887-.017.478-.381.851-.976.738z" fill="#C3FF5B" data-color="1"></path>
        <path d="M198.728 359.672v-6.065c1.338-1.589 1.469-4.177 3.743-5.832.832 4.856-2.741 8.133-3.743 11.897z" fill="#C3FF5B" data-color="1"></path>
        <path d="M247.554 63.214h-1.586c-1.001 1.379.379 1.865.385 2.716-.719.574-1.549.169-2.322.265-.74-.707 1.052-1.601-.359-2.544-.938-.627 1.108-1.46.855-2.409-.351-1.317.875-1.972 1.031-3.041.757.151 1.911-.497 1.996 1.003l-.851.35c.023 1.294 1.507.137 1.757 1.086-.579 1.347-2.195-.127-2.847 1.019.207 1.071 2.157-.056 1.941 1.555z" fill="#C3FF5B" data-color="1"></path>
        <path d="M334.408 59.199c-.167.616.292 1.32-.358 1.868-.506.427-.945.933-1.415 1.405-.469.471-.928.953-1.41 1.41-.481.455-.794.911-.876 1.651-.089.801-.843.816-1.509.583 2.334-5.963 2.369-6.006 5.568-6.917z" fill="#C3FF5B" data-color="1"></path>
        <path d="M357.349 66.222h-3.993c.255-3.679.255-3.679 3.993-3.832v3.832z" fill="#C3FF5B" data-color="1"></path>
        <path d="M182.673 409.121c.193 2.683-.416 5.082-2.259 7.589-1.807-2.923 1.392-4.914.214-6.971.711-.928 1.437-.457 2.045-.618z" fill="#C3FF5B" data-color="1"></path>
        <path d="M193.038 373.98l1.303.222c.637 1.03.173 2.185.315 3.293-.695.582-1.045 1.667-2.447 1.553-1.601-1.839.403-3.241.829-5.068z" fill="#C3FF5B" data-color="1"></path>
        <path d="M183.039 409.488c-1.439-2.957 1.246-4.807.566-7.348l2.022.112c.309 2.935-1.689 4.761-2.588 7.236z" fill="#C3FF5B" data-color="1"></path>
        <path d="M227.591 135.406c-.17.833.77.937.886 1.454-.825 1.445-1.995 2.719-1.884 4.562h-1.996c.562-1.99.588-2.04 1.896-3.617-.602-.554-1.27-1.086-.714-2.1.483-.61 1.2-.171 1.812-.299z" fill="#C3FF5B" data-color="1"></path>
        <path d="M175.688 423.173h-.998c-.113-.611.258-.925.757-.984.67-.08 1.311-.081 1.239-1.022h1.58c1.006 1.434-.336 1.869-.543 2.664-.183.701-.038 1.489-.038 2.173-1.161.217-1.953.395-1.996-.826v-1.003c.276-.11.754-.174.791-.338.135-.601-.307-.7-.792-.664z" fill="#C3FF5B" data-color="1"></path>
        <path d="M318.309 83.825c.383-2.122 2.185-3.496 2.246-5.504.774-.037 1.273-.244 1.662.246.477.952-1.923 4.262-3.908 5.258z" fill="#C3FF5B" data-color="1"></path>
        <path d="M316.284 87.495v3.469c-.294.287-.701.827-1.236 1.155-.329.201-.854.079-1.636.12.045-2.126 1.508-3.352 2.872-4.744z" fill="#C3FF5B" data-color="1"></path>
        <path d="M167.048 453.52c-.767-2.432-.125-3.712 1.889-4.358.865 2.478.865 2.478-1.889 4.358z" fill="#C3FF5B" data-color="1"></path>
        <path d="M196.16 368.036c.407 2.723.407 2.723-2.016 3.99-.408-2.722-.408-2.722 2.016-3.99z" fill="#C3FF5B" data-color="1"></path>
        <path d="M189.544 389.19c.27 1.118-.076 1.578-.527 2.102-.368.427-.462 1.092-.703 1.718h-1.307c-.252-3.033-.268-3.047 2.537-3.82z" fill="#C3FF5B" data-color="1"></path>
        <path d="M204.72 347.009c-1.225-.06-1.743.057-2.155-.9-.19-.544.399-1.089 1.064-1.573-.445-.664-1.336-1.061-.992-2.045.3-.447.721-.597 1.606-.482.785 1.44.189 3.115.477 5z" fill="#C3FF5B" data-color="1"></path>
        <path d="M77.87 361.007c1.073-1.832 2.562-.767 3.904-.932l.104 1.47c-1.208.925-2.676.26-4.008.464v-1.002z" fill="#C3FF5B" data-color="1"></path>
        <path d="M159.215 499.596c-1.225-2.58.135-4.279.984-6.397 1.298 2.423-.118 4.187-.984 6.397z" fill="#C3FF5B" data-color="1"></path>
        <path d="M88.85 358v1.523c-1.141 1.106-2.466.07-3.395.496-.787-.575-.557-1.09-.56-1.548.444-.668.737-.168 1.226.277.882.067 1.627-1.211 2.729-.748z" fill="#C3FF5B" data-color="1"></path>
        <path d="M198.352 360.895c.403 1.541.491 2.759.016 4.036h-1.356c-.856-1.647-.308-2.823 1.34-4.036z" fill="#C3FF5B" data-color="1"></path>
        <path d="M222.6 176.516c0 1.272-.002 2.543.001 3.815.001.683-.113 1.263-.999 1.198-.15-.76.495-1.92-.998-2.005v-1.003c.243-1.093.908-1.761 1.996-2.005z" fill="#C3FF5B" data-color="1"></path>
        <path d="M252.544 58.201h-.998v-2.84l1.651-.178c.185 1.146 1.205 2.36-.653 3.018z" fill="#C3FF5B" data-color="1"></path>
        <path d="M190.126 383.066h1.021c.938.773.441 1.745.37 2.63-.336.595-.882.309-1.367.387-.792-1.007-.771-2.009-.024-3.017z" fill="#C3FF5B" data-color="1"></path>
        <path d="M77.87 361.007v1.003c-.617 1.871-1.842.817-2.949.715.671-1.282 1.546-1.979 2.949-1.718z" fill="#C3FF5B" data-color="1"></path>
        <path d="M159.939 501.871l-2.004 1.242c-.574-.566-.189-1.502-.045-2.418.761-.452 1.472-.738 2.049 1.176z" fill="#C3FF5B" data-color="1"></path>
        <path d="M71.817 364.187c-.557 1.196-1.214 1.936-2.426 1.837-.602-.52-.65-1.082-.24-1.837h2.666z" fill="#C3FF5B" data-color="1"></path>
        <path d="M170.697 445.231v-2.005c1.146-.034 2.352-.135 1.934 1.555-.621.749-1.327.328-1.934.45z" fill="#C3FF5B" data-color="1"></path>
        <path d="M148.738 518.426h-1.766c-.283-1.136-.493-1.936.768-2.005 1.493.085.848 1.245.998 2.005z" fill="#C3FF5B" data-color="1"></path>
        <path d="M161.202 485.339c1.287-.123 1.809.369 1.374 1.616-.342.604-.885.32-1.342.394-.761-.665-.742-1.333-.032-2.01z" fill="#C3FF5B" data-color="1"></path>
        <path d="M162.212 483.467c-.674-1.195-.674-2.082-.002-3.273.639 1.101.725 1.992.002 3.273z" fill="#C3FF5B" data-color="1"></path>
        <path d="M61.293 370.145l-.744-2.087c.955-.418 1.375.202.744 2.087z" fill="#C3FF5B" data-color="1"></path>
        <path d="M476.924 272.045c-.829.927-1.713.881-2.868.281 1.003-.921 1.984-.291 2.868-.281z" fill="#C3FF5B" data-color="1"></path>
        <path d="M161.6 478.713l2.069-.745c.569 1.071-.281 1.308-2.069.745z" fill="#C3FF5B" data-color="1"></path>
        <path d="M324.376 74.25l.121-1.658c.747-.527 1.279-.424 1.821-.039-.464.831-.943 1.542-1.942 1.697z" fill="#C3FF5B" data-color="1"></path>
        <path d="M205.036 340.881c-.621-.695-.656-1.682.149-1.845 1.019-.208.148.89.418 1.331.024.038-.36.329-.567.514z" fill="#C3FF5B" data-color="1"></path>
        <path d="M328.001 68.3c.621.695.656 1.682-.149 1.845-1.019.208-.148-.89-.418-1.331-.024-.038.36-.329.567-.514z" fill="#C3FF5B" data-color="1"></path>
        <path d="M147.241 525.435c.725.678.725 1.347 0 2.025-.725-.678-.725-1.347 0-2.025z" fill="#C3FF5B" data-color="1"></path>
        <path d="M327.948 70.07c-1.138 1.346-1.772 1.43-2.462.76.386-1.055 1.277-.419 2.462-.76z" fill="#C3FF5B" data-color="1"></path>
        <path d="M322.816 77.179c-.621-.695-.656-1.682.149-1.845 1.019-.208.148.89.418 1.331.024.038-.359.329-.567.514z" fill="#C3FF5B" data-color="1"></path>
        <path d="M180.688 419.663c-.675.728-1.341.728-2.016 0 .676-.728 1.341-.728 2.016 0z" fill="#C3FF5B" data-color="1"></path>
        <path d="M324.41 74.244c.025.694-.307 1.028-.998 1.003-.025-.695.308-1.029.998-1.003z" fill="#C3FF5B" data-color="1"></path>
        <path d="M217.615 206.095c.327-.467.66-.467.988 0-.328.467-.661.467-.988 0z" fill="#C3FF5B" data-color="1"></path>
        <path d="M311.934 96.294c-.466-.326-.466-.66 0-.985.465.325.465.659 0 .985z" fill="#C3FF5B" data-color="1"></path>
        <path d="M261.029 183.529c-.465-.329-.465-.663 0-.992.465.329.465.663 0 .992z" fill="#C3FF5B" data-color="1"></path>
        <path d="M205.636 338.944c-.085-.481.135-.785.591-.888.077-.018.311.217.294.295-.104.458-.406.679-.885.593z" fill="#C3FF5B" data-color="1"></path>
        <path d="M166.709 466.292c.479-.086.781.135.884.593.017.078-.216.312-.294.295-.455-.103-.676-.407-.59-.888z" fill="#C3FF5B" data-color="1"></path>
        <path d="M163.715 472.299c-.085-.481.135-.785.591-.888.077-.018.311.217.294.295-.104.458-.406.679-.885.593z" fill="#C3FF5B" data-color="1"></path>
        <path d="M163.706 472.308c.085.481-.135.785-.591.888-.077.018-.311-.217-.294-.295.103-.458.406-.679.885-.593z" fill="#C3FF5B" data-color="1"></path>
        <path d="M71.382 275.789c.466.326.466.66 0 .985-.465-.325-.465-.66 0-.985z" fill="#C3FF5B" data-color="1"></path>
        <path d="M186.667 344.964c.691-.025 1.024.309.998 1.003-.69.026-1.023-.309-.998-1.003z" fill="#C3FF5B" data-color="1"></path>
        <path d="M242.563 234.671c-.152.539-4.695 10.177-4.92 10.459-.46.577-1.021.737-1.997.296.629-2.575.896-5.422 2.09-7.799.582-1.16 1.629-3.217 3.829-2.956h.998z" fill="#C3FF5B" data-color="1"></path>
        <path d="M415.241 175.513c-.15-.76.495-1.92-.998-2.005 0-.166-.025-.473.004-.478 2.888-.521 5.781-1.019 8.674-1.518.214 1.179-1.227 1.572-.79 2.676-1.229.713-2.565.162-3.834.313-1.094.132-1.76 1.529-3.056 1.012z" fill="#C3FF5B" data-color="1"></path>
        <path d="M238.99 88.293c-1.385-2.516.701-4.732-.224-6.968 1.778-.327 2.035 1.079 2.807 1.432.042 1.558-1.01 2.006-1.682 2.634-.885.827.325 2.029-.901 2.902z" fill="#C3FF5B" data-color="1"></path>
        <path d="M134.764 338.948c.691-.025 1.024.309.998 1.003-.11.278-.215.796-.332.798-2.183.048-4.368.036-6.736.036 1.809-2.021 3.942-1.918 6.07-1.837z" fill="#C3FF5B" data-color="1"></path>
        <path d="M152.904 481.178v-7.545l1.13-1.134c1.881 1.436-.223 2.556-.286 3.833-.079 1.603-.019 3.212-.019 4.819l-.825.027z" fill="#C3FF5B" data-color="1"></path>
        <path d="M240.529 74.488c1.612-.398 2.827-.283 4.128-.043-.464.991-1.238.667-1.758.961-.673.693-.163 1.558-.336 2.322-.45.603-1.016.668-1.7.342-.613-1.029-.162-2.189-.334-3.582z" fill="#C3FF5B" data-color="1"></path>
        <path d="M240.477 105.418c.308 2.732-3.603 1.119-1.776 3.961-1.729-.422-.64-2.158-1.95-2.371l1.135-2.449c1.061-.052 1.382 1.708 2.591.859z" fill="#C3FF5B" data-color="1"></path>
        <path d="M213.617 316.89h-1.436c-1.047.276.039 2.158-2.663 1.909-.566-.071.49-2.1-.861-2.512 1.045-.67 2.032-.284 2.964-.399.756.15 1.911-.498 1.996 1.002z" fill="#C3FF5B" data-color="1"></path>
        <path d="M247.554 63.214l1.489-.001c.879-.365.099-1.632 1.123-1.977.605 1.222.439 2.47.216 3.685-1.985 1.031-1.946-1.069-2.828-1.707z" fill="#C3FF5B" data-color="1"></path>
        <path d="M302.171 290.962c-.794-.587-.852-1.155-.512-1.913 1.152-.432 2.364-.344 4.118.119l-3.606 1.794z" fill="#C3FF5B" data-color="1"></path>
        <path d="M448.159 256.607h-3.615c1.427-.903 1.652-2.045 2.972-1.882 1.083.38.53 1.307.643 1.882z" fill="#C3FF5B" data-color="1"></path>
        <path d="M426.072 259.081c-.47 1.025-1.131 1.759-2.341 1.663-.603-.521-.651-1.083-.311-1.708.893-.445 1.773-.503 2.652.045z" fill="#C3FF5B" data-color="1"></path>
        <path d="M243.023 86.3c-.829-1.165-.384-2.438-.364-3.589.361-.631.897-.392 1.372-.452 1.07.914-.528 1.101-.499 1.78.032.756.334 1.634-.509 2.261z" fill="#C3FF5B" data-color="1"></path>
        <path d="M200.3 291.665c-.64.295-1.203.231-1.655-.355-.128-1.281.729-1.83 1.63-2.434.51 1.03.567 1.915.025 2.789z" fill="#C3FF5B" data-color="1"></path>
        <path d="M192.909 330.489l-1.986 1.204-1.265-1.271c.955-.664 1.864-.728 3.251.067z" fill="#C3FF5B" data-color="1"></path>
        <path d="M246.552 304.717v1.654c-.782.892-1.736.431-2.668.348-.417-1.065.489-.677.905-.874.495-.235.934-.588 1.763-1.128z" fill="#C3FF5B" data-color="1"></path>
        <path d="M461.258 257.423c-1.729.61-2.219.085-2.098-1.194.465-.577 1.03-.641 1.82-.263l.278 1.457z" fill="#C3FF5B" data-color="1"></path>
        <path d="M235.681 107.037c-1.691.544-2.321.192-2.038-1.286.403-.495.966-.572 1.759-.176l.279 1.462z" fill="#C3FF5B" data-color="1"></path>
        <path d="M227.302 160.884l-1.315 2.115c-.192-2.431-.192-2.431 1.315-2.115z" fill="#C3FF5B" data-color="1"></path>
        <path d="M337.112 158.265c-.923-.833-.877-1.721-.28-2.881.917 1.007.29 1.993.28 2.881z" fill="#C3FF5B" data-color="1"></path>
        <path d="M230.088 143.293c.674 1.195.674 2.082.002 3.273-.639-1.1-.726-1.991-.002-3.273z" fill="#C3FF5B" data-color="1"></path>
        <path d="M227.454 125.858c1.215-.631 2.1-.678 3.262.042-1.104.593-1.994.737-3.262-.042z" fill="#C3FF5B" data-color="1"></path>
        <path d="M472.269 254.224c-1.19.677-2.073.677-3.258.002 1.095-.642 1.982-.729 3.258-.002z" fill="#C3FF5B" data-color="1"></path>
        <path d="M227.591 133.401h.998c-.15.76.495 1.92-.998 2.005v-2.005z" fill="#C3FF5B" data-color="1"></path>
        <path d="M207.628 245.7v-2.005c.937-.072 1.054.572.979 1.245-.056.501-.37.874-.979.76z" fill="#C3FF5B" data-color="1"></path>
        <path d="M209.125 242.702c-.725-.678-.725-1.347 0-2.025.725.678.725 1.347 0 2.025z" fill="#C3FF5B" data-color="1"></path>
        <path d="M209.125 300.838c-.466-.326-.466-.66 0-.985.466.325.466.66 0 .985z" fill="#C3FF5B" data-color="1"></path>
        <path d="M211.122 299.836c-.466-.326-.466-.66 0-.985.465.325.465.659 0 .985z" fill="#C3FF5B" data-color="1"></path>
        <path d="M450.185 258.233c.324-.468.657-.468.981 0-.325.468-.657.468-.981 0z" fill="#C3FF5B" data-color="1"></path>
        <path d="M448.184 256.734c.479-.086.781.135.884.593.017.078-.216.312-.293.295-.456-.103-.676-.407-.591-.888z" fill="#C3FF5B" data-color="1"></path>
        <path d="M442.195 256.734c.479-.086.781.135.884.593.017.078-.216.312-.294.295-.455-.103-.675-.407-.59-.888z" fill="#C3FF5B" data-color="1"></path>
        <path d="M442.186 256.725c-.479.086-.781-.135-.884-.593-.017-.078.216-.312.294-.295.456.103.676.407.59.888z" fill="#C3FF5B" data-color="1"></path>
        <path d="M221.611 181.492c-.172.863.737.973.915 1.624-.669.804-1.626.333-2.495.353-.558-.508-.556-1.062-.11-1.845l1.69-.132z" fill="#C3FF5B" data-color="1"></path>
        <path d="M222.058 176.679c1.138-1.346 1.772-1.43 2.462-.76-.387 1.055-1.277.419-2.462.76z" fill="#C3FF5B" data-color="1"></path>
        <path d="M227.348 263.915l1.684-.182c1.171-.974.185-2.432.682-3.64.551-1.064 1.726-1.249 2.836-1.743l-.869-1.064c.305-.755.91-.599 1.516-.441.128.281.425.615.357.834-1.136 3.685-2.246 7.398-4.208 10.738-.433.737-.895 1.342-.749 2.193.293 1.704-1.07 2.694-1.586 4.618-1.394-4.178 1.675-7.462.337-11.313z" fill="#C3FF5B" data-color="1"></path>
        <path d="M231.223 254.867c2.014-2.392 4.074-4.686 3.272-8.077h3.254c-2.529 2.686-1.657 6.338-3.684 8.937-.769-.18-1.643.351-2.842-.86z" fill="#C3FF5B" data-color="1"></path>
        <path d="M224.597 281.796c.731-1.439-1.25-2.066-1.007-3.342.417-1.033 1.304-.563 2.005-.669 0 .944-.003 1.888.001 2.832.003.685-.134 1.241-.999 1.179z" fill="#C3FF5B" data-color="1"></path>
        <path d="M257.333 279.063c-.829.927-1.713.881-2.868.281 1.003-.92 1.984-.29 2.868-.281z" fill="#C3FF5B" data-color="1"></path>
        <path d="M195.432 279.109c-.523.837-1.076.872-1.65.337.358-1.341 1.165-.132 1.65-.337z" fill="#C3FF5B" data-color="1"></path>
        <path d="M225.599 277.781c-.085-.481.135-.785.591-.888.077-.018.311.217.294.295-.104.458-.406.679-.885.593z" fill="#C3FF5B" data-color="1"></path>
        <path d="M224.592 281.801c.085.481-.135.785-.591.888-.077.018-.311-.217-.294-.295.104-.458.406-.679.885-.593z" fill="#C3FF5B" data-color="1"></path>
    </g>
</svg>